#N canvas 120 60 1180 780 12;
#X obj 40 40 loadbang;
#X msg 40 75 \; pd dsp 1;
#X msg 150 75 1;
#X obj 150 110 tgl 24 0 empty empty RUN 0 -10 0 12 #fcfcfc #000000 #000000 0 1;
#X obj 150 150 metro 125;
#X obj 150 190 f 0;
#X obj 220 190 + 1;
#X obj 220 225 mod 16;
#X obj 150 235 t f f f;
#X obj 70 300 sel 0 4 8 12;
#X obj 70 350 t b b;
#X msg 40 390 82 0 \, 46 95 0;
#X obj 40 425 vline~;
#X obj 40 460 osc~;
#X msg 160 390 0.75 2 \, 0 165 2;
#X obj 160 425 vline~;
#X obj 40 500 *~;
#X obj 40 535 lop~ 900;
#X obj 40 575 *~ 0.7;
#X obj 410 300 sel 2 6 10 14;
#X obj 410 350 t b;
#X msg 410 390 0.22 1 \, 0 55 1;
#X obj 410 425 vline~;
#X obj 560 350 noise~;
#X obj 560 390 hip~ 5000;
#X obj 560 430 bp~ 9000 4;
#X obj 560 470 *~;
#X obj 560 510 *~ 0.35;
#X obj 760 300 sel 0 3 6 8 11 14;
#X msg 700 350 55;
#X msg 750 350 65.41;
#X msg 815 350 82.41;
#X msg 880 350 73.42;
#X msg 945 350 65.41;
#X msg 1010 350 98;
#X obj 820 400 t b f;
#X obj 900 435 pack f 20;
#X obj 900 470 line~;
#X obj 900 505 phasor~;
#X obj 900 540 *~ 2;
#X obj 900 575 -~ 1;
#X obj 900 610 lop~ 900;
#X msg 760 435 0.38 8 \, 0 190 8;
#X obj 760 470 vline~;
#X obj 900 650 *~;
#X obj 900 685 *~ 0.36;
#X obj 300 600 +~;
#X obj 300 640 +~;
#X obj 300 675 hip~ 5;
#X obj 300 710 +~;
#X obj 300 745 delwrite~ electro-delay 1000;
#X obj 520 585 vd~ electro-delay;
#X obj 520 625 lop~ 1400;
#X obj 520 665 *~;
#X obj 650 665 *~;
#X obj 300 530 *~ 0.78;
#X obj 300 570 +~;
#X obj 300 610 clip~ -0.85 0.85;
#X obj 300 650 *~ 0.52;
#X obj 300 690 dac~ 1 2;
#X obj 40 655 netreceive -f 19777;
#X obj 40 690 route fxmix delay feedback tone stop;
#X obj 40 725 clip 0 0.35;
#X obj 40 760 pack f 30;
#X obj 40 795 line~;
#X obj 175 725 clip 60 500;
#X obj 175 760 pack f 30;
#X obj 175 795 line~;
#X obj 310 725 clip 0 0.65;
#X obj 310 760 pack f 30;
#X obj 310 795 line~;
#X obj 445 725 clip 300 6000;
#X obj 445 760 pack f 30;
#X obj 445 795 line;
#X msg 590 725 \; pd dsp 0;
#X msg 40 615 0.12;
#X msg 110 615 250;
#X msg 180 615 0.28;
#X msg 250 615 1400;
#X text 40 635 Live FX control port: fxmix delay feedback tone stop;
#X text 520 560 Delay FX send/return with live mix \, time \, feedback \, and tone;
#X connect 0 0 1 0;
#X connect 0 0 2 0;
#X connect 0 0 75 0;
#X connect 0 0 76 0;
#X connect 0 0 77 0;
#X connect 0 0 78 0;
#X connect 2 0 3 0;
#X connect 3 0 4 0;
#X connect 4 0 5 0;
#X connect 5 0 8 0;
#X connect 5 0 6 0;
#X connect 6 0 7 0;
#X connect 7 0 5 1;
#X connect 8 0 9 0;
#X connect 8 1 19 0;
#X connect 8 2 28 0;
#X connect 9 0 10 0;
#X connect 9 1 10 0;
#X connect 9 2 10 0;
#X connect 9 3 10 0;
#X connect 10 0 11 0;
#X connect 10 1 14 0;
#X connect 11 0 12 0;
#X connect 12 0 13 0;
#X connect 13 0 16 0;
#X connect 14 0 15 0;
#X connect 15 0 16 1;
#X connect 16 0 17 0;
#X connect 17 0 18 0;
#X connect 18 0 46 0;
#X connect 19 0 20 0;
#X connect 19 1 20 0;
#X connect 19 2 20 0;
#X connect 19 3 20 0;
#X connect 20 0 21 0;
#X connect 21 0 22 0;
#X connect 22 0 26 1;
#X connect 23 0 24 0;
#X connect 24 0 25 0;
#X connect 25 0 26 0;
#X connect 26 0 27 0;
#X connect 27 0 47 1;
#X connect 28 0 29 0;
#X connect 28 1 30 0;
#X connect 28 2 31 0;
#X connect 28 3 32 0;
#X connect 28 4 33 0;
#X connect 28 5 34 0;
#X connect 29 0 35 0;
#X connect 30 0 35 0;
#X connect 31 0 35 0;
#X connect 32 0 35 0;
#X connect 33 0 35 0;
#X connect 34 0 35 0;
#X connect 35 0 42 0;
#X connect 35 1 36 0;
#X connect 36 0 37 0;
#X connect 37 0 38 0;
#X connect 38 0 39 0;
#X connect 39 0 40 0;
#X connect 40 0 41 0;
#X connect 41 0 44 0;
#X connect 42 0 43 0;
#X connect 43 0 44 1;
#X connect 44 0 45 0;
#X connect 45 0 46 1;
#X connect 46 0 47 0;
#X connect 47 0 48 0;
#X connect 48 0 49 0;
#X connect 48 0 55 0;
#X connect 49 0 50 0;
#X connect 51 0 52 0;
#X connect 52 0 53 0;
#X connect 52 0 54 0;
#X connect 53 0 49 1;
#X connect 54 0 56 1;
#X connect 55 0 56 0;
#X connect 56 0 57 0;
#X connect 57 0 58 0;
#X connect 58 0 59 0;
#X connect 58 0 59 1;
#X connect 60 0 61 0;
#X connect 61 0 62 0;
#X connect 61 1 65 0;
#X connect 61 2 68 0;
#X connect 61 3 71 0;
#X connect 61 4 74 0;
#X connect 62 0 63 0;
#X connect 63 0 64 0;
#X connect 64 0 54 1;
#X connect 65 0 66 0;
#X connect 66 0 67 0;
#X connect 67 0 51 0;
#X connect 68 0 69 0;
#X connect 69 0 70 0;
#X connect 70 0 53 1;
#X connect 71 0 72 0;
#X connect 72 0 73 0;
#X connect 73 0 52 1;
#X connect 75 0 62 0;
#X connect 76 0 65 0;
#X connect 77 0 68 0;
#X connect 78 0 71 0;
